<svg width="960" height="540" viewBox="0 0 960 540" fill="none" xmlns="http://www.w3.org/2000/svg">
  <defs>
    <linearGradient id="cardA" x1="0" y1="0" x2="1" y2="1">
      <stop offset="0" stop-color="#EEF2FF"/>
      <stop offset="1" stop-color="#DBEAFE"/>
    </linearGradient>
    <linearGradient id="cardB" x1="1" y1="0" x2="0" y2="1">
      <stop offset="0" stop-color="#E0F2FE"/>
      <stop offset="1" stop-color="#F8FAFC"/>
    </linearGradient>
    <linearGradient id="cardC" x1="0" y1="1" x2="1" y2="0">
      <stop offset="0" stop-color="#F1F5F9"/>
      <stop offset="1" stop-color="#E2E8F0"/>
    </linearGradient>
  </defs>
  <rect width="960" height="540" fill="#F8FAFC"/>
  <rect x="120" y="90" width="300" height="200" rx="20" fill="url(#cardA)"/>
  <rect x="460" y="70" width="340" height="230" rx="22" fill="url(#cardB)"/>
  <rect x="220" y="300" width="520" height="170" rx="24" fill="url(#cardC)"/>
  <rect x="150" y="120" width="120" height="10" rx="5" fill="#94A3B8" opacity="0.6"/>
  <rect x="150" y="145" width="180" height="12" rx="6" fill="#64748B" opacity="0.5"/>
  <rect x="150" y="170" width="210" height="10" rx="5" fill="#94A3B8" opacity="0.45"/>
  <rect x="490" y="110" width="140" height="10" rx="5" fill="#94A3B8" opacity="0.6"/>
  <rect x="490" y="135" width="220" height="12" rx="6" fill="#64748B" opacity="0.5"/>
  <rect x="490" y="160" width="180" height="10" rx="5" fill="#94A3B8" opacity="0.45"/>
  <rect x="260" y="340" width="150" height="10" rx="5" fill="#94A3B8" opacity="0.6"/>
  <rect x="260" y="365" width="260" height="12" rx="6" fill="#64748B" opacity="0.5"/>
  <rect x="260" y="390" width="200" height="10" rx="5" fill="#94A3B8" opacity="0.45"/>
  <circle cx="720" cy="360" r="48" fill="#BFDBFE" opacity="0.6"/>
  <circle cx="760" cy="390" r="28" fill="#93C5FD" opacity="0.5"/>
</svg>
